<svg xmlns="http://www.w3.org/2000/svg" xmlns:xlink="http://www.w3.org/1999/xlink" width="1080" zoomAndPan="magnify" viewBox="0 0 810 809.999993" height="1080" preserveAspectRatio="xMidYMid meet" version="1.0"><defs><clipPath id="25abb53c27"><path d="M 60.429688 391 L 128 391 L 128 482 L 60.429688 482 Z M 60.429688 391 " clip-rule="nonzero"/></clipPath><clipPath id="9263d49e80"><path d="M 552 319.71875 L 645 319.71875 L 645 412 L 552 412 Z M 552 319.71875 " clip-rule="nonzero"/></clipPath><clipPath id="c7c3a16d1f"><path d="M 658 319.71875 L 749.679688 319.71875 L 749.679688 413 L 658 413 Z M 658 319.71875 " clip-rule="nonzero"/></clipPath><clipPath id="271a841be8"><path d="M 592 425 L 638 425 L 638 489.96875 L 592 489.96875 Z M 592 425 " clip-rule="nonzero"/></clipPath><clipPath id="fdd9a77e03"><path d="M 664 425 L 710 425 L 710 489.96875 L 664 489.96875 Z M 664 425 " clip-rule="nonzero"/></clipPath></defs><path fill="#cb6ce6" d="M 96.414062 443.277344 L 96.414062 384.386719 C 96.414062 384.113281 96.386719 383.847656 96.335938 383.578125 C 96.28125 383.3125 96.203125 383.054688 96.097656 382.804688 C 95.996094 382.550781 95.867188 382.3125 95.714844 382.089844 C 95.566406 381.863281 95.394531 381.652344 95.199219 381.460938 C 95.007812 381.269531 94.800781 381.097656 94.574219 380.945312 C 94.347656 380.796875 94.109375 380.667969 93.855469 380.566406 C 93.605469 380.460938 93.34375 380.382812 93.078125 380.328125 C 92.8125 380.277344 92.542969 380.25 92.269531 380.25 L 74.304688 380.25 C 70.972656 380.304688 63.269531 389.082031 61.40625 392.789062 L 71.542969 446.039062 L 71.542969 463.960938 C 71.542969 464.414062 71.585938 464.863281 71.675781 465.308594 C 71.761719 465.75 71.894531 466.183594 72.066406 466.601562 C 72.242188 467.019531 72.453125 467.417969 72.707031 467.792969 C 72.957031 468.167969 73.246094 468.515625 73.566406 468.835938 C 73.886719 469.15625 74.234375 469.445312 74.613281 469.695312 C 74.988281 469.945312 75.386719 470.160156 75.808594 470.332031 C 76.226562 470.503906 76.660156 470.636719 77.101562 470.722656 C 77.546875 470.8125 77.996094 470.855469 78.449219 470.855469 L 96.414062 470.855469 L 125.730469 480.800781 C 128.507812 478.847656 138.128906 470.382812 138.128906 468.097656 L 138.128906 450.171875 C 138.128906 449.902344 138.101562 449.632812 138.046875 449.367188 C 137.996094 449.097656 137.917969 448.839844 137.8125 448.589844 C 137.707031 448.339844 137.582031 448.101562 137.429688 447.875 C 137.277344 447.648438 137.105469 447.4375 136.914062 447.246094 C 136.722656 447.054688 136.511719 446.882812 136.285156 446.734375 C 136.058594 446.582031 135.820312 446.453125 135.570312 446.351562 C 135.316406 446.246094 135.058594 446.167969 134.792969 446.117188 C 134.523438 446.0625 134.253906 446.035156 133.984375 446.035156 L 99.179688 446.035156 C 98.8125 446.035156 98.460938 445.964844 98.121094 445.828125 C 97.78125 445.6875 97.484375 445.488281 97.226562 445.230469 C 96.964844 444.96875 96.765625 444.671875 96.625 444.332031 C 96.484375 443.996094 96.414062 443.644531 96.414062 443.277344 Z M 96.414062 443.277344 " fill-opacity="1" fill-rule="nonzero"/><g clip-path="url(#25abb53c27)"><path fill="#142664" d="M 85.304688 454.363281 L 85.304688 395.46875 C 85.304688 395.199219 85.28125 394.929688 85.226562 394.664062 C 85.171875 394.398438 85.09375 394.136719 84.992188 393.886719 C 84.886719 393.636719 84.757812 393.398438 84.605469 393.171875 C 84.457031 392.945312 84.285156 392.738281 84.09375 392.546875 C 83.898438 392.351562 83.691406 392.183594 83.464844 392.03125 C 83.238281 391.878906 83 391.753906 82.746094 391.648438 C 82.496094 391.542969 82.238281 391.464844 81.96875 391.414062 C 81.703125 391.359375 81.433594 391.335938 81.160156 391.335938 L 64.578125 391.335938 C 64.304688 391.335938 64.035156 391.359375 63.769531 391.414062 C 63.5 391.464844 63.242188 391.542969 62.992188 391.648438 C 62.738281 391.753906 62.5 391.878906 62.273438 392.03125 C 62.046875 392.183594 61.839844 392.351562 61.644531 392.546875 C 61.453125 392.738281 61.28125 392.945312 61.128906 393.171875 C 60.980469 393.398438 60.851562 393.636719 60.746094 393.886719 C 60.644531 394.136719 60.5625 394.398438 60.511719 394.664062 C 60.457031 394.929688 60.429688 395.199219 60.429688 395.46875 L 60.429688 475.042969 C 60.429688 475.496094 60.476562 475.945312 60.5625 476.390625 C 60.652344 476.832031 60.785156 477.265625 60.957031 477.683594 C 61.132812 478.101562 61.34375 478.496094 61.597656 478.875 C 61.847656 479.25 62.136719 479.597656 62.457031 479.917969 C 62.777344 480.238281 63.125 480.523438 63.503906 480.777344 C 63.878906 481.027344 64.277344 481.238281 64.695312 481.414062 C 65.117188 481.585938 65.546875 481.714844 65.992188 481.804688 C 66.4375 481.894531 66.886719 481.9375 67.339844 481.9375 L 122.871094 481.9375 C 123.144531 481.9375 123.414062 481.910156 123.679688 481.859375 C 123.945312 481.804688 124.207031 481.726562 124.457031 481.621094 C 124.710938 481.519531 124.949219 481.390625 125.175781 481.242188 C 125.402344 481.089844 125.609375 480.917969 125.804688 480.726562 C 125.996094 480.535156 126.167969 480.324219 126.320312 480.097656 C 126.46875 479.875 126.597656 479.636719 126.703125 479.382812 C 126.804688 479.132812 126.882812 478.875 126.9375 478.609375 C 126.992188 478.339844 127.015625 478.074219 127.015625 477.800781 L 127.015625 461.257812 C 127.015625 460.984375 126.992188 460.714844 126.9375 460.449219 C 126.882812 460.183594 126.804688 459.925781 126.703125 459.671875 C 126.597656 459.421875 126.46875 459.183594 126.320312 458.957031 C 126.167969 458.730469 125.996094 458.523438 125.804688 458.332031 C 125.609375 458.140625 125.402344 457.96875 125.175781 457.816406 C 124.949219 457.664062 124.710938 457.539062 124.457031 457.433594 C 124.207031 457.332031 123.945312 457.253906 123.679688 457.199219 C 123.414062 457.148438 123.144531 457.121094 122.871094 457.121094 L 88.070312 457.121094 C 87.703125 457.121094 87.351562 457.050781 87.011719 456.910156 C 86.671875 456.769531 86.375 456.570312 86.117188 456.3125 C 85.855469 456.054688 85.65625 455.753906 85.515625 455.417969 C 85.375 455.078125 85.304688 454.726562 85.304688 454.363281 Z M 85.304688 454.363281 " fill-opacity="1" fill-rule="nonzero"/></g><path fill="#142664" d="M 87.8125 456.425781 C 87.8125 456.425781 88.902344 455.5 90.359375 454.222656 C 91.09375 453.519531 91.972656 452.746094 92.800781 451.929688 C 93.28125 451.453125 93.734375 450.953125 94.164062 450.433594 C 95.875 448.5 97.246094 446.882812 97.246094 446.882812 C 97.582031 446.570312 97.433594 445.96875 97.046875 445.558594 C 96.890625 445.351562 96.683594 445.226562 96.425781 445.183594 C 96.171875 445.136719 95.933594 445.1875 95.714844 445.328125 C 95.714844 445.328125 94.078125 446.714844 92.191406 448.421875 C 91.675781 448.863281 91.1875 449.328125 90.726562 449.824219 C 89.898438 450.644531 89.117188 451.511719 88.441406 452.257812 C 87.140625 453.671875 86.226562 454.824219 86.226562 454.824219 C 85.894531 455.132812 86.039062 455.738281 86.425781 456.144531 C 86.921875 456.648438 87.558594 456.742188 87.8125 456.425781 Z M 87.8125 456.425781 " fill-opacity="1" fill-rule="nonzero"/><path fill="#142664" d="M 85.804688 392.503906 C 85.804688 392.503906 86.898438 391.578125 88.355469 390.304688 C 89.089844 389.601562 89.96875 388.828125 90.796875 388.007812 C 91.277344 387.535156 91.730469 387.035156 92.160156 386.515625 C 93.867188 384.582031 95.242188 382.964844 95.242188 382.964844 C 95.574219 382.652344 95.429688 382.050781 95.042969 381.640625 C 94.882812 381.433594 94.679688 381.308594 94.421875 381.261719 C 94.164062 381.21875 93.929688 381.265625 93.710938 381.40625 C 93.710938 381.40625 92.074219 382.796875 90.1875 384.503906 C 89.671875 384.941406 89.183594 385.410156 88.71875 385.90625 C 87.890625 386.722656 87.117188 387.589844 86.4375 388.339844 C 85.136719 389.753906 84.222656 390.902344 84.222656 390.902344 C 83.886719 391.214844 84.035156 391.816406 84.421875 392.226562 C 84.917969 392.730469 85.554688 392.820312 85.804688 392.503906 Z M 85.804688 392.503906 " fill-opacity="1" fill-rule="nonzero"/><path fill="#142664" d="M 127.535156 458.644531 C 127.535156 458.644531 128.625 457.71875 130.082031 456.441406 C 130.816406 455.742188 131.695312 454.96875 132.523438 454.144531 C 133.003906 453.671875 133.457031 453.175781 133.886719 452.65625 C 135.59375 450.722656 136.96875 449.105469 136.96875 449.105469 C 137.304688 448.792969 137.15625 448.191406 136.769531 447.78125 C 136.613281 447.574219 136.40625 447.449219 136.148438 447.402344 C 135.894531 447.359375 135.65625 447.40625 135.4375 447.550781 C 135.4375 447.550781 133.804688 448.9375 131.917969 450.644531 C 131.398438 451.082031 130.910156 451.550781 130.449219 452.046875 C 129.621094 452.867188 128.84375 453.730469 128.164062 454.480469 C 126.863281 455.894531 125.953125 457.046875 125.953125 457.046875 C 125.617188 457.355469 125.761719 457.957031 126.152344 458.367188 C 126.644531 458.867188 127.28125 458.960938 127.535156 458.644531 Z M 127.535156 458.644531 " fill-opacity="1" fill-rule="nonzero"/><path fill="#cb6ce6" d="M 245.070312 397.898438 L 245.070312 384.324219 C 245.070312 384.054688 245.042969 383.789062 244.988281 383.527344 C 244.9375 383.261719 244.855469 383.007812 244.753906 382.757812 C 244.648438 382.511719 244.523438 382.277344 244.371094 382.054688 C 244.222656 381.832031 244.050781 381.625 243.859375 381.4375 C 243.667969 381.246094 243.460938 381.078125 243.234375 380.929688 C 243.011719 380.78125 242.773438 380.65625 242.527344 380.554688 C 242.277344 380.453125 242.019531 380.375 241.753906 380.324219 C 241.492188 380.273438 241.226562 380.25 240.957031 380.25 L 166.921875 380.25 C 163.128906 380.25 156.148438 388.84375 152.898438 392.570312 L 161.433594 464.421875 C 161.433594 464.867188 161.480469 465.3125 161.570312 465.75 C 161.660156 466.1875 161.789062 466.613281 161.964844 467.027344 C 162.136719 467.441406 162.347656 467.832031 162.601562 468.203125 C 162.851562 468.574219 163.136719 468.917969 163.453125 469.234375 C 163.773438 469.546875 164.117188 469.828125 164.492188 470.078125 C 164.867188 470.324219 165.261719 470.53125 165.675781 470.703125 C 166.089844 470.871094 166.519531 471 166.960938 471.082031 C 167.398438 471.167969 167.84375 471.210938 168.292969 471.210938 L 232.773438 480.855469 C 239.28125 477.433594 245.070312 470.964844 245.070312 469.167969 L 245.070312 452.882812 C 245.070312 452.613281 245.042969 452.347656 244.988281 452.082031 C 244.9375 451.820312 244.855469 451.566406 244.753906 451.316406 C 244.648438 451.070312 244.523438 450.835938 244.371094 450.613281 C 244.222656 450.390625 244.050781 450.183594 243.859375 449.996094 C 243.667969 449.804688 243.460938 449.636719 243.234375 449.488281 C 243.011719 449.339844 242.773438 449.214844 242.527344 449.113281 C 242.277344 449.011719 242.019531 448.933594 241.753906 448.882812 C 241.492188 448.832031 241.226562 448.808594 240.957031 448.808594 L 188.878906 448.808594 C 188.515625 448.808594 188.167969 448.742188 187.832031 448.605469 C 187.496094 448.46875 187.199219 448.273438 186.941406 448.019531 C 186.683594 447.761719 186.484375 447.46875 186.34375 447.136719 C 186.207031 446.800781 186.132812 446.453125 186.132812 446.09375 L 186.132812 439.984375 C 186.132812 439.621094 186.207031 439.273438 186.34375 438.941406 C 186.484375 438.609375 186.683594 438.3125 186.941406 438.058594 C 187.199219 437.804688 187.496094 437.609375 187.832031 437.472656 C 188.167969 437.335938 188.515625 437.265625 188.878906 437.269531 L 207.636719 443.339844 C 214.355469 439.421875 219.839844 435.445312 219.839844 433.195312 L 219.839844 420.976562 C 219.839844 420.707031 219.8125 420.441406 219.757812 420.179688 C 219.707031 419.914062 219.625 419.660156 219.523438 419.414062 C 219.417969 419.164062 219.289062 418.929688 219.140625 418.707031 C 218.988281 418.484375 218.820312 418.277344 218.628906 418.089844 C 218.4375 417.898438 218.230469 417.730469 218.003906 417.582031 C 217.78125 417.433594 217.542969 417.308594 217.292969 417.207031 C 217.046875 417.105469 216.789062 417.03125 216.523438 416.980469 C 216.261719 416.929688 215.992188 416.902344 215.722656 416.902344 L 188.878906 416.902344 C 188.515625 416.90625 188.167969 416.835938 187.832031 416.699219 C 187.496094 416.5625 187.199219 416.367188 186.941406 416.113281 C 186.683594 415.859375 186.484375 415.566406 186.34375 415.230469 C 186.207031 414.898438 186.132812 414.550781 186.132812 414.1875 L 186.132812 403.328125 C 186.132812 401.828125 187.363281 400.613281 180.601562 410.433594 L 232.5625 410.4375 C 241.882812 403.765625 245.070312 400.148438 245.070312 397.898438 Z M 245.070312 397.898438 " fill-opacity="1" fill-rule="nonzero"/><path fill="#142664" d="M 234.824219 392.398438 C 234.824219 392.398438 235.90625 391.488281 237.351562 390.230469 C 238.082031 389.539062 238.957031 388.777344 239.777344 387.96875 C 240.253906 387.503906 240.707031 387.011719 241.132812 386.5 C 242.828125 384.597656 244.191406 383.003906 244.191406 383.003906 C 244.523438 382.695312 244.378906 382.105469 243.996094 381.699219 C 243.835938 381.496094 243.632812 381.371094 243.378906 381.328125 C 243.125 381.285156 242.890625 381.332031 242.671875 381.472656 C 242.671875 381.472656 241.046875 382.839844 239.179688 384.519531 C 238.667969 384.953125 238.179688 385.410156 237.722656 385.898438 C 236.898438 386.707031 236.128906 387.558594 235.453125 388.296875 C 234.160156 389.6875 233.257812 390.820312 233.257812 390.820312 C 232.921875 391.128906 233.066406 391.722656 233.453125 392.125 C 233.9375 392.621094 234.574219 392.714844 234.824219 392.398438 Z M 234.824219 392.398438 " fill-opacity="1" fill-rule="nonzero"/><path fill="#142664" d="M 234.753906 458.855469 C 234.753906 458.855469 235.710938 458.070312 236.988281 456.984375 C 237.625 456.382812 238.398438 455.722656 239.113281 455.019531 C 239.53125 454.613281 239.921875 454.179688 240.289062 453.726562 C 241.753906 452.054688 242.929688 450.644531 242.929688 450.644531 C 243.222656 450.375 243.046875 449.8125 242.664062 449.410156 C 242.222656 448.964844 241.679688 448.882812 241.410156 449.117188 C 241.410156 449.117188 239.980469 450.292969 238.332031 451.75 C 237.878906 452.121094 237.453125 452.523438 237.054688 452.949219 C 236.339844 453.65625 235.667969 454.40625 235.082031 455.050781 C 233.960938 456.277344 233.1875 457.28125 233.1875 457.28125 C 232.894531 457.550781 233.070312 458.113281 233.457031 458.515625 C 233.941406 459.007812 234.539062 459.132812 234.753906 458.855469 Z M 234.753906 458.855469 " fill-opacity="1" fill-rule="nonzero"/><path fill="#142664" d="M 210.023438 427.050781 C 210.023438 427.050781 210.976562 426.261719 212.257812 425.175781 C 212.894531 424.574219 213.664062 423.917969 214.382812 423.214844 C 214.800781 422.804688 215.191406 422.375 215.554688 421.921875 C 217.023438 420.246094 218.199219 418.835938 218.199219 418.835938 C 218.492188 418.570312 218.316406 418.007812 217.929688 417.605469 C 217.492188 417.160156 216.945312 417.078125 216.679688 417.308594 C 216.679688 417.308594 215.25 418.488281 213.597656 419.941406 C 213.148438 420.316406 212.722656 420.714844 212.320312 421.144531 C 211.605469 421.847656 210.9375 422.597656 210.347656 423.246094 C 209.230469 424.46875 208.453125 425.476562 208.453125 425.476562 C 208.164062 425.742188 208.335938 426.304688 208.722656 426.707031 C 209.207031 427.199219 209.808594 427.324219 210.023438 427.050781 Z M 210.023438 427.050781 " fill-opacity="1" fill-rule="nonzero"/><path fill="#142664" d="M 177.921875 424.03125 C 177.921875 424.03125 178.875 423.246094 180.15625 422.160156 C 180.792969 421.558594 181.5625 420.898438 182.28125 420.195312 C 182.699219 419.789062 183.089844 419.359375 183.453125 418.90625 C 184.921875 417.230469 186.097656 415.820312 186.097656 415.820312 C 186.390625 415.554688 186.214844 414.992188 185.828125 414.589844 C 185.390625 414.140625 184.847656 414.058594 184.578125 414.292969 C 184.578125 414.292969 183.148438 415.46875 181.496094 416.925781 C 181.046875 417.300781 180.621094 417.699219 180.222656 418.128906 C 179.503906 418.832031 178.835938 419.582031 178.25 420.230469 C 177.128906 421.453125 176.355469 422.460938 176.355469 422.460938 C 176.0625 422.726562 176.234375 423.289062 176.621094 423.691406 C 177.105469 424.183594 177.707031 424.308594 177.921875 424.03125 Z M 177.921875 424.03125 " fill-opacity="1" fill-rule="nonzero"/><path fill="#142664" d="M 234.09375 407.269531 L 234.09375 395.050781 C 234.09375 394.78125 234.066406 394.515625 234.011719 394.253906 C 233.957031 393.988281 233.878906 393.734375 233.773438 393.484375 C 233.671875 393.238281 233.542969 393.003906 233.394531 392.78125 C 233.242188 392.558594 233.070312 392.351562 232.878906 392.164062 C 232.691406 391.972656 232.480469 391.804688 232.257812 391.65625 C 232.03125 391.507812 231.796875 391.382812 231.546875 391.28125 C 231.296875 391.179688 231.042969 391.105469 230.777344 391.050781 C 230.511719 391 230.246094 390.976562 229.976562 390.976562 L 157.3125 390.976562 C 156.863281 390.976562 156.417969 391.015625 155.980469 391.101562 C 155.539062 391.1875 155.109375 391.316406 154.695312 391.484375 C 154.28125 391.65625 153.886719 391.863281 153.511719 392.109375 C 153.136719 392.355469 152.792969 392.636719 152.472656 392.953125 C 152.15625 393.269531 151.871094 393.613281 151.621094 393.984375 C 151.367188 394.355469 151.15625 394.746094 150.984375 395.160156 C 150.808594 395.570312 150.679688 395.996094 150.589844 396.4375 C 150.5 396.875 150.453125 397.316406 150.453125 397.765625 L 150.453125 475.148438 C 150.453125 475.59375 150.5 476.039062 150.589844 476.476562 C 150.679688 476.914062 150.808594 477.339844 150.984375 477.753906 C 151.15625 478.167969 151.367188 478.558594 151.621094 478.929688 C 151.871094 479.300781 152.15625 479.644531 152.472656 479.960938 C 152.792969 480.273438 153.136719 480.554688 153.511719 480.804688 C 153.886719 481.050781 154.28125 481.257812 154.695312 481.425781 C 155.109375 481.597656 155.539062 481.726562 155.980469 481.808594 C 156.417969 481.894531 156.863281 481.9375 157.3125 481.933594 L 229.972656 481.933594 C 230.242188 481.9375 230.507812 481.910156 230.773438 481.859375 C 231.039062 481.808594 231.292969 481.734375 231.542969 481.628906 C 231.792969 481.527344 232.027344 481.402344 232.253906 481.253906 C 232.476562 481.109375 232.6875 480.9375 232.878906 480.75 C 233.066406 480.5625 233.238281 480.355469 233.390625 480.132812 C 233.539062 479.910156 233.667969 479.675781 233.773438 479.425781 C 233.875 479.179688 233.953125 478.921875 234.007812 478.660156 C 234.0625 478.398438 234.089844 478.132812 234.089844 477.863281 L 234.089844 461.574219 C 234.089844 461.304688 234.0625 461.039062 234.007812 460.777344 C 233.953125 460.515625 233.875 460.257812 233.773438 460.011719 C 233.667969 459.761719 233.539062 459.527344 233.390625 459.304688 C 233.238281 459.082031 233.066406 458.875 232.878906 458.6875 C 232.6875 458.5 232.476562 458.328125 232.253906 458.179688 C 232.027344 458.03125 231.792969 457.90625 231.542969 457.804688 C 231.292969 457.703125 231.039062 457.628906 230.773438 457.578125 C 230.507812 457.527344 230.242188 457.5 229.972656 457.503906 L 177.894531 457.503906 C 177.53125 457.503906 177.183594 457.4375 176.847656 457.300781 C 176.511719 457.160156 176.21875 456.964844 175.960938 456.710938 C 175.703125 456.457031 175.503906 456.164062 175.363281 455.828125 C 175.222656 455.496094 175.152344 455.148438 175.152344 454.785156 L 175.152344 447.320312 C 175.152344 446.957031 175.222656 446.609375 175.363281 446.277344 C 175.503906 445.945312 175.703125 445.648438 175.960938 445.394531 C 176.21875 445.140625 176.511719 444.945312 176.847656 444.808594 C 177.183594 444.671875 177.53125 444.601562 177.894531 444.605469 L 204.65625 444.605469 C 204.925781 444.605469 205.191406 444.582031 205.453125 444.53125 C 205.71875 444.480469 205.976562 444.402344 206.226562 444.300781 C 206.472656 444.199219 206.710938 444.074219 206.933594 443.925781 C 207.160156 443.777344 207.367188 443.609375 207.558594 443.417969 C 207.75 443.230469 207.921875 443.023438 208.070312 442.800781 C 208.222656 442.578125 208.347656 442.34375 208.453125 442.097656 C 208.558594 441.847656 208.636719 441.59375 208.691406 441.328125 C 208.742188 441.066406 208.769531 440.800781 208.773438 440.53125 L 208.773438 428.3125 C 208.769531 428.042969 208.742188 427.777344 208.691406 427.515625 C 208.636719 427.25 208.558594 426.996094 208.453125 426.746094 C 208.347656 426.5 208.222656 426.265625 208.070312 426.042969 C 207.921875 425.820312 207.75 425.613281 207.558594 425.425781 C 207.367188 425.234375 207.160156 425.066406 206.933594 424.917969 C 206.710938 424.769531 206.472656 424.644531 206.226562 424.542969 C 205.976562 424.441406 205.71875 424.363281 205.453125 424.3125 C 205.191406 424.261719 204.925781 424.238281 204.65625 424.238281 L 177.898438 424.238281 C 177.535156 424.242188 177.1875 424.171875 176.851562 424.035156 C 176.515625 423.898438 176.21875 423.703125 175.964844 423.449219 C 175.707031 423.195312 175.507812 422.898438 175.367188 422.566406 C 175.226562 422.234375 175.15625 421.886719 175.152344 421.523438 L 175.152344 414.058594 C 175.15625 413.695312 175.226562 413.347656 175.367188 413.015625 C 175.507812 412.679688 175.707031 412.386719 175.964844 412.132812 C 176.21875 411.878906 176.515625 411.679688 176.851562 411.542969 C 177.1875 411.40625 177.535156 411.339844 177.898438 411.339844 L 229.972656 411.339844 C 230.242188 411.34375 230.507812 411.316406 230.773438 411.265625 C 231.039062 411.214844 231.292969 411.140625 231.542969 411.039062 C 231.792969 410.9375 232.03125 410.8125 232.253906 410.664062 C 232.480469 410.515625 232.6875 410.347656 232.878906 410.160156 C 233.070312 409.96875 233.242188 409.761719 233.390625 409.539062 C 233.542969 409.316406 233.671875 409.082031 233.773438 408.835938 C 233.878906 408.585938 233.957031 408.332031 234.011719 408.070312 C 234.066406 407.804688 234.09375 407.539062 234.09375 407.269531 Z M 234.09375 407.269531 " fill-opacity="1" fill-rule="nonzero"/><path fill="#cb6ce6" d="M 510.65625 443.277344 L 510.65625 384.386719 C 510.65625 384.113281 510.628906 383.847656 510.574219 383.578125 C 510.523438 383.3125 510.445312 383.054688 510.339844 382.804688 C 510.234375 382.550781 510.109375 382.3125 509.957031 382.089844 C 509.804688 381.863281 509.632812 381.652344 509.441406 381.460938 C 509.25 381.269531 509.039062 381.097656 508.8125 380.945312 C 508.585938 380.796875 508.347656 380.667969 508.097656 380.566406 C 507.84375 380.460938 507.585938 380.382812 507.320312 380.328125 C 507.050781 380.277344 506.78125 380.25 506.511719 380.25 L 488.546875 380.25 C 485.210938 380.304688 477.507812 389.082031 475.644531 392.789062 L 485.78125 446.039062 L 485.78125 463.960938 C 485.78125 464.414062 485.824219 464.863281 485.914062 465.308594 C 486.003906 465.75 486.132812 466.183594 486.308594 466.601562 C 486.480469 467.019531 486.695312 467.417969 486.945312 467.792969 C 487.199219 468.167969 487.484375 468.515625 487.804688 468.835938 C 488.125 469.15625 488.476562 469.445312 488.851562 469.695312 C 489.230469 469.945312 489.628906 470.160156 490.046875 470.332031 C 490.464844 470.503906 490.898438 470.636719 491.34375 470.722656 C 491.789062 470.8125 492.238281 470.855469 492.691406 470.855469 L 510.65625 470.855469 L 539.96875 480.800781 C 542.75 478.847656 552.367188 470.382812 552.367188 468.097656 L 552.367188 450.171875 C 552.367188 449.902344 552.339844 449.632812 552.289062 449.367188 C 552.234375 449.097656 552.15625 448.839844 552.050781 448.589844 C 551.949219 448.339844 551.820312 448.101562 551.667969 447.875 C 551.519531 447.648438 551.347656 447.441406 551.152344 447.246094 C 550.960938 447.054688 550.75 446.882812 550.527344 446.734375 C 550.300781 446.582031 550.058594 446.453125 549.808594 446.351562 C 549.558594 446.246094 549.296875 446.167969 549.03125 446.117188 C 548.765625 446.0625 548.496094 446.035156 548.222656 446.035156 L 513.417969 446.035156 C 513.054688 446.035156 512.699219 445.964844 512.363281 445.828125 C 512.023438 445.6875 511.722656 445.488281 511.464844 445.230469 C 511.207031 444.96875 511.003906 444.671875 510.867188 444.332031 C 510.726562 443.996094 510.65625 443.644531 510.65625 443.277344 Z M 510.65625 443.277344 " fill-opacity="1" fill-rule="nonzero"/><path fill="#142664" d="M 499.546875 454.363281 L 499.546875 395.46875 C 499.546875 395.199219 499.519531 394.929688 499.464844 394.664062 C 499.414062 394.398438 499.335938 394.136719 499.230469 393.886719 C 499.125 393.636719 499 393.398438 498.847656 393.171875 C 498.695312 392.945312 498.523438 392.738281 498.332031 392.546875 C 498.140625 392.351562 497.929688 392.179688 497.703125 392.03125 C 497.476562 391.878906 497.238281 391.753906 496.984375 391.648438 C 496.734375 391.542969 496.476562 391.464844 496.207031 391.414062 C 495.941406 391.359375 495.671875 391.335938 495.398438 391.335938 L 478.816406 391.335938 C 478.546875 391.335938 478.277344 391.359375 478.007812 391.414062 C 477.742188 391.464844 477.480469 391.542969 477.230469 391.648438 C 476.980469 391.753906 476.742188 391.878906 476.515625 392.03125 C 476.289062 392.179688 476.078125 392.351562 475.886719 392.546875 C 475.691406 392.738281 475.519531 392.945312 475.371094 393.171875 C 475.21875 393.398438 475.089844 393.636719 474.988281 393.886719 C 474.882812 394.136719 474.804688 394.398438 474.75 394.664062 C 474.699219 394.929688 474.671875 395.199219 474.671875 395.46875 L 474.671875 475.042969 C 474.671875 475.496094 474.714844 475.945312 474.804688 476.390625 C 474.894531 476.832031 475.023438 477.265625 475.199219 477.683594 C 475.371094 478.101562 475.585938 478.496094 475.835938 478.875 C 476.089844 479.25 476.375 479.597656 476.695312 479.917969 C 477.015625 480.238281 477.367188 480.523438 477.742188 480.777344 C 478.121094 481.027344 478.519531 481.238281 478.9375 481.414062 C 479.355469 481.585938 479.789062 481.714844 480.234375 481.804688 C 480.679688 481.894531 481.128906 481.9375 481.582031 481.9375 L 537.113281 481.9375 C 537.382812 481.9375 537.652344 481.910156 537.921875 481.859375 C 538.1875 481.804688 538.449219 481.726562 538.699219 481.625 C 538.949219 481.519531 539.191406 481.394531 539.417969 481.242188 C 539.644531 481.089844 539.851562 480.917969 540.046875 480.726562 C 540.238281 480.535156 540.410156 480.328125 540.5625 480.101562 C 540.714844 479.875 540.839844 479.636719 540.945312 479.386719 C 541.050781 479.132812 541.128906 478.875 541.183594 478.609375 C 541.234375 478.34375 541.261719 478.074219 541.261719 477.800781 L 541.261719 461.257812 C 541.261719 460.984375 541.234375 460.714844 541.183594 460.449219 C 541.128906 460.183594 541.050781 459.925781 540.945312 459.671875 C 540.839844 459.421875 540.714844 459.183594 540.5625 458.957031 C 540.410156 458.730469 540.238281 458.523438 540.046875 458.332031 C 539.855469 458.140625 539.644531 457.96875 539.417969 457.816406 C 539.191406 457.667969 538.953125 457.539062 538.703125 457.433594 C 538.449219 457.332031 538.191406 457.253906 537.925781 457.199219 C 537.65625 457.148438 537.386719 457.121094 537.117188 457.121094 L 502.308594 457.121094 C 501.945312 457.121094 501.589844 457.050781 501.253906 456.910156 C 500.914062 456.769531 500.613281 456.570312 500.355469 456.3125 C 500.097656 456.054688 499.898438 455.753906 499.757812 455.417969 C 499.617188 455.078125 499.546875 454.726562 499.546875 454.363281 Z M 499.546875 454.363281 " fill-opacity="1" fill-rule="nonzero"/><path fill="#142664" d="M 502.050781 456.425781 C 502.050781 456.425781 503.140625 455.5 504.597656 454.222656 C 505.332031 453.519531 506.214844 452.746094 507.042969 451.929688 C 507.523438 451.453125 507.976562 450.953125 508.402344 450.433594 C 510.113281 448.5 511.484375 446.882812 511.484375 446.882812 C 511.820312 446.570312 511.675781 445.96875 511.285156 445.558594 C 511.128906 445.351562 510.921875 445.226562 510.667969 445.183594 C 510.410156 445.136719 510.171875 445.1875 509.957031 445.328125 C 509.957031 445.328125 508.320312 446.714844 506.433594 448.421875 C 505.917969 448.863281 505.425781 449.328125 504.964844 449.824219 C 504.136719 450.644531 503.359375 451.511719 502.679688 452.257812 C 501.378906 453.671875 500.46875 454.824219 500.46875 454.824219 C 500.132812 455.132812 500.28125 455.738281 500.667969 456.144531 C 501.160156 456.648438 501.800781 456.742188 502.050781 456.425781 Z M 502.050781 456.425781 " fill-opacity="1" fill-rule="nonzero"/><path fill="#142664" d="M 500.046875 392.503906 C 500.046875 392.503906 501.136719 391.578125 502.59375 390.304688 C 503.328125 389.601562 504.207031 388.828125 505.035156 388.007812 C 505.515625 387.535156 505.972656 387.035156 506.398438 386.515625 C 508.109375 384.582031 509.480469 382.964844 509.480469 382.964844 C 509.816406 382.652344 509.667969 382.050781 509.28125 381.640625 C 509.125 381.433594 508.917969 381.308594 508.660156 381.261719 C 508.40625 381.21875 508.167969 381.265625 507.949219 381.40625 C 507.949219 381.40625 506.316406 382.796875 504.425781 384.503906 C 503.910156 384.941406 503.421875 385.410156 502.960938 385.90625 C 502.132812 386.722656 501.355469 387.589844 500.675781 388.339844 C 499.375 389.753906 498.464844 390.902344 498.464844 390.902344 C 498.128906 391.214844 498.273438 391.816406 498.660156 392.226562 C 499.15625 392.730469 499.792969 392.820312 500.046875 392.503906 Z M 500.046875 392.503906 " fill-opacity="1" fill-rule="nonzero"/><path fill="#142664" d="M 541.773438 458.644531 C 541.773438 458.644531 542.863281 457.71875 544.320312 456.441406 C 545.054688 455.742188 545.9375 454.96875 546.765625 454.144531 C 547.246094 453.671875 547.699219 453.175781 548.125 452.65625 C 549.835938 450.722656 551.207031 449.105469 551.207031 449.105469 C 551.542969 448.792969 551.398438 448.191406 551.011719 447.78125 C 550.851562 447.574219 550.644531 447.449219 550.390625 447.402344 C 550.132812 447.359375 549.894531 447.40625 549.679688 447.550781 C 549.679688 447.550781 548.042969 448.9375 546.15625 450.644531 C 545.640625 451.082031 545.152344 451.550781 544.6875 452.046875 C 543.859375 452.867188 543.085938 453.730469 542.402344 454.480469 C 541.101562 455.894531 540.191406 457.046875 540.191406 457.046875 C 539.855469 457.355469 540.003906 457.957031 540.390625 458.367188 C 540.882812 458.867188 541.523438 458.960938 541.773438 458.644531 Z M 541.773438 458.644531 " fill-opacity="1" fill-rule="nonzero"/><path fill="#cb6ce6" d="M 462.761719 397.898438 L 462.761719 384.324219 C 462.761719 384.054688 462.734375 383.789062 462.679688 383.523438 C 462.625 383.261719 462.546875 383.007812 462.445312 382.757812 C 462.339844 382.511719 462.210938 382.277344 462.0625 382.054688 C 461.910156 381.832031 461.738281 381.625 461.550781 381.4375 C 461.359375 381.246094 461.148438 381.078125 460.925781 380.929688 C 460.699219 380.78125 460.464844 380.65625 460.214844 380.554688 C 459.964844 380.453125 459.710938 380.375 459.445312 380.324219 C 459.179688 380.273438 458.914062 380.25 458.644531 380.25 L 384.609375 380.25 C 380.820312 380.25 373.839844 388.84375 370.589844 392.570312 L 379.121094 464.421875 C 379.125 464.867188 379.167969 465.3125 379.257812 465.75 C 379.347656 466.1875 379.480469 466.613281 379.652344 467.027344 C 379.824219 467.441406 380.039062 467.832031 380.289062 468.203125 C 380.539062 468.574219 380.824219 468.917969 381.144531 469.234375 C 381.460938 469.546875 381.808594 469.828125 382.183594 470.078125 C 382.554688 470.324219 382.949219 470.53125 383.367188 470.703125 C 383.78125 470.871094 384.207031 471 384.648438 471.082031 C 385.089844 471.167969 385.535156 471.210938 385.980469 471.210938 L 450.457031 480.855469 C 456.964844 477.433594 462.757812 470.964844 462.757812 469.167969 L 462.757812 452.882812 C 462.757812 452.613281 462.730469 452.347656 462.675781 452.082031 C 462.621094 451.820312 462.542969 451.566406 462.441406 451.316406 C 462.335938 451.070312 462.207031 450.835938 462.058594 450.613281 C 461.90625 450.390625 461.738281 450.183594 461.546875 449.992188 C 461.355469 449.804688 461.144531 449.636719 460.921875 449.488281 C 460.699219 449.339844 460.460938 449.214844 460.210938 449.113281 C 459.960938 449.011719 459.707031 448.933594 459.441406 448.882812 C 459.175781 448.832031 458.910156 448.808594 458.640625 448.808594 L 406.566406 448.808594 C 406.203125 448.808594 405.855469 448.742188 405.519531 448.605469 C 405.183594 448.46875 404.886719 448.273438 404.632812 448.019531 C 404.375 447.761719 404.175781 447.46875 404.035156 447.136719 C 403.894531 446.800781 403.824219 446.453125 403.820312 446.09375 L 403.820312 439.984375 C 403.824219 439.621094 403.894531 439.273438 404.035156 438.941406 C 404.175781 438.609375 404.375 438.3125 404.632812 438.058594 C 404.886719 437.804688 405.183594 437.609375 405.519531 437.472656 C 405.855469 437.335938 406.203125 437.265625 406.566406 437.269531 L 425.328125 443.339844 C 432.042969 439.421875 437.53125 435.445312 437.53125 433.195312 L 437.53125 420.976562 C 437.53125 420.707031 437.503906 420.441406 437.449219 420.179688 C 437.394531 419.914062 437.316406 419.660156 437.210938 419.414062 C 437.109375 419.164062 436.980469 418.929688 436.832031 418.707031 C 436.679688 418.484375 436.507812 418.277344 436.316406 418.089844 C 436.125 417.898438 435.917969 417.730469 435.695312 417.582031 C 435.46875 417.433594 435.234375 417.308594 434.984375 417.207031 C 434.734375 417.105469 434.476562 417.03125 434.214844 416.980469 C 433.949219 416.925781 433.683594 416.902344 433.414062 416.902344 L 406.566406 416.902344 C 406.203125 416.90625 405.855469 416.835938 405.519531 416.699219 C 405.183594 416.5625 404.886719 416.367188 404.632812 416.113281 C 404.375 415.859375 404.175781 415.566406 404.035156 415.230469 C 403.894531 414.898438 403.824219 414.550781 403.820312 414.1875 L 403.820312 403.328125 C 403.820312 401.828125 405.050781 400.613281 398.292969 410.433594 L 450.253906 410.4375 C 459.574219 403.765625 462.761719 400.148438 462.761719 397.898438 Z M 462.761719 397.898438 " fill-opacity="1" fill-rule="nonzero"/><path fill="#142664" d="M 452.515625 392.398438 C 452.515625 392.398438 453.597656 391.488281 455.042969 390.230469 C 455.773438 389.539062 456.648438 388.777344 457.46875 387.96875 C 457.945312 387.503906 458.398438 387.011719 458.824219 386.5 C 460.519531 384.597656 461.882812 383.003906 461.882812 383.003906 C 462.214844 382.695312 462.070312 382.105469 461.683594 381.699219 C 461.527344 381.496094 461.324219 381.371094 461.070312 381.328125 C 460.816406 381.285156 460.578125 381.332031 460.363281 381.472656 C 460.363281 381.472656 458.738281 382.839844 456.863281 384.519531 C 456.351562 384.953125 455.867188 385.410156 455.40625 385.898438 C 454.585938 386.707031 453.816406 387.558594 453.136719 388.296875 C 451.847656 389.6875 450.941406 390.820312 450.941406 390.820312 C 450.609375 391.128906 450.753906 391.722656 451.140625 392.125 C 451.628906 392.621094 452.261719 392.714844 452.515625 392.398438 Z M 452.515625 392.398438 " fill-opacity="1" fill-rule="nonzero"/><path fill="#142664" d="M 452.445312 458.855469 C 452.445312 458.855469 453.398438 458.070312 454.679688 456.984375 C 455.316406 456.382812 456.085938 455.722656 456.804688 455.019531 C 457.222656 454.613281 457.613281 454.179688 457.976562 453.726562 C 459.445312 452.054688 460.621094 450.644531 460.621094 450.644531 C 460.914062 450.375 460.738281 449.8125 460.351562 449.410156 C 459.914062 448.964844 459.367188 448.882812 459.101562 449.117188 C 459.101562 449.117188 457.671875 450.292969 456.019531 451.75 C 455.566406 452.121094 455.140625 452.523438 454.742188 452.949219 C 454.027344 453.65625 453.359375 454.40625 452.769531 455.050781 C 451.652344 456.277344 450.875 457.28125 450.875 457.28125 C 450.582031 457.550781 450.757812 458.113281 451.144531 458.515625 C 451.628906 459.007812 452.230469 459.132812 452.445312 458.855469 Z M 452.445312 458.855469 " fill-opacity="1" fill-rule="nonzero"/><path fill="#142664" d="M 427.710938 427.050781 C 427.710938 427.050781 428.667969 426.261719 429.945312 425.175781 C 430.585938 424.574219 431.355469 423.917969 432.074219 423.214844 C 432.488281 422.804688 432.878906 422.375 433.246094 421.921875 C 434.710938 420.246094 435.886719 418.835938 435.886719 418.835938 C 436.179688 418.570312 436.003906 418.007812 435.621094 417.605469 C 435.179688 417.160156 434.636719 417.078125 434.367188 417.308594 C 434.367188 417.308594 432.9375 418.488281 431.285156 419.941406 C 430.835938 420.316406 430.410156 420.714844 430.011719 421.144531 C 429.296875 421.847656 428.625 422.597656 428.039062 423.246094 C 426.917969 424.46875 426.144531 425.476562 426.144531 425.476562 C 425.851562 425.742188 426.023438 426.304688 426.414062 426.707031 C 426.898438 427.199219 427.496094 427.324219 427.710938 427.050781 Z M 427.710938 427.050781 " fill-opacity="1" fill-rule="nonzero"/><path fill="#142664" d="M 395.609375 424.03125 C 395.609375 424.03125 396.566406 423.246094 397.84375 422.160156 C 398.480469 421.558594 399.25 420.898438 399.96875 420.195312 C 400.386719 419.789062 400.777344 419.359375 401.144531 418.90625 C 402.609375 417.230469 403.785156 415.820312 403.785156 415.820312 C 404.078125 415.554688 403.902344 414.992188 403.515625 414.589844 C 403.078125 414.140625 402.53125 414.058594 402.265625 414.292969 C 402.265625 414.292969 400.835938 415.46875 399.183594 416.925781 C 398.734375 417.300781 398.308594 417.699219 397.910156 418.128906 C 397.195312 418.832031 396.523438 419.582031 395.9375 420.230469 C 394.816406 421.453125 394.042969 422.460938 394.042969 422.460938 C 393.75 422.726562 393.925781 423.289062 394.308594 423.691406 C 394.796875 424.183594 395.394531 424.308594 395.609375 424.03125 Z M 395.609375 424.03125 " fill-opacity="1" fill-rule="nonzero"/><path fill="#142664" d="M 451.785156 407.269531 L 451.785156 395.050781 C 451.78125 394.78125 451.753906 394.515625 451.703125 394.253906 C 451.648438 393.988281 451.570312 393.734375 451.464844 393.484375 C 451.359375 393.238281 451.234375 393.003906 451.082031 392.78125 C 450.933594 392.558594 450.761719 392.351562 450.570312 392.164062 C 450.378906 391.972656 450.171875 391.804688 449.945312 391.65625 C 449.722656 391.507812 449.484375 391.382812 449.238281 391.28125 C 448.988281 391.179688 448.730469 391.105469 448.46875 391.050781 C 448.203125 391 447.9375 390.976562 447.667969 390.976562 L 375.007812 390.976562 C 374.558594 390.976562 374.113281 391.015625 373.671875 391.101562 C 373.234375 391.1875 372.804688 391.316406 372.390625 391.484375 C 371.972656 391.65625 371.578125 391.863281 371.207031 392.109375 C 370.832031 392.355469 370.484375 392.636719 370.167969 392.953125 C 369.847656 393.269531 369.5625 393.613281 369.3125 393.984375 C 369.0625 394.355469 368.847656 394.746094 368.675781 395.160156 C 368.503906 395.570312 368.371094 395.996094 368.28125 396.4375 C 368.191406 396.875 368.144531 397.316406 368.144531 397.765625 L 368.144531 475.148438 C 368.144531 475.59375 368.191406 476.039062 368.28125 476.476562 C 368.371094 476.914062 368.503906 477.339844 368.675781 477.753906 C 368.847656 478.167969 369.0625 478.558594 369.3125 478.929688 C 369.5625 479.300781 369.847656 479.644531 370.167969 479.960938 C 370.484375 480.273438 370.832031 480.554688 371.207031 480.804688 C 371.578125 481.050781 371.972656 481.257812 372.390625 481.429688 C 372.804688 481.597656 373.234375 481.726562 373.671875 481.808594 C 374.113281 481.894531 374.558594 481.9375 375.007812 481.933594 L 447.667969 481.933594 C 447.9375 481.9375 448.203125 481.910156 448.46875 481.859375 C 448.730469 481.808594 448.988281 481.734375 449.238281 481.628906 C 449.484375 481.527344 449.722656 481.402344 449.945312 481.253906 C 450.171875 481.109375 450.378906 480.9375 450.570312 480.75 C 450.761719 480.5625 450.933594 480.355469 451.082031 480.132812 C 451.234375 479.910156 451.359375 479.675781 451.464844 479.425781 C 451.570312 479.179688 451.648438 478.921875 451.703125 478.660156 C 451.753906 478.398438 451.78125 478.132812 451.785156 477.863281 L 451.785156 461.574219 C 451.78125 461.304688 451.753906 461.039062 451.703125 460.777344 C 451.648438 460.515625 451.570312 460.257812 451.464844 460.011719 C 451.359375 459.761719 451.234375 459.527344 451.082031 459.304688 C 450.933594 459.082031 450.761719 458.875 450.570312 458.6875 C 450.378906 458.5 450.171875 458.328125 449.945312 458.179688 C 449.722656 458.03125 449.484375 457.910156 449.238281 457.804688 C 448.988281 457.703125 448.730469 457.628906 448.46875 457.578125 C 448.203125 457.527344 447.9375 457.5 447.667969 457.503906 L 395.589844 457.503906 C 395.226562 457.503906 394.878906 457.4375 394.542969 457.300781 C 394.207031 457.160156 393.910156 456.964844 393.652344 456.710938 C 393.394531 456.457031 393.195312 456.164062 393.058594 455.828125 C 392.917969 455.496094 392.847656 455.148438 392.84375 454.785156 L 392.84375 447.320312 C 392.847656 446.957031 392.917969 446.609375 393.058594 446.277344 C 393.199219 445.945312 393.394531 445.648438 393.652344 445.394531 C 393.910156 445.140625 394.207031 444.945312 394.542969 444.808594 C 394.878906 444.671875 395.226562 444.601562 395.589844 444.605469 L 422.347656 444.605469 C 422.617188 444.605469 422.882812 444.582031 423.148438 444.53125 C 423.414062 444.476562 423.667969 444.402344 423.917969 444.300781 C 424.167969 444.199219 424.402344 444.074219 424.628906 443.925781 C 424.851562 443.777344 425.0625 443.609375 425.25 443.417969 C 425.441406 443.230469 425.613281 443.023438 425.765625 442.800781 C 425.914062 442.578125 426.042969 442.34375 426.144531 442.097656 C 426.25 441.847656 426.328125 441.59375 426.382812 441.328125 C 426.4375 441.066406 426.464844 440.800781 426.464844 440.53125 L 426.464844 428.3125 C 426.464844 428.042969 426.4375 427.777344 426.382812 427.515625 C 426.328125 427.25 426.25 426.996094 426.144531 426.746094 C 426.042969 426.5 425.914062 426.265625 425.765625 426.042969 C 425.613281 425.820312 425.441406 425.613281 425.25 425.425781 C 425.0625 425.234375 424.851562 425.066406 424.628906 424.917969 C 424.402344 424.769531 424.167969 424.644531 423.917969 424.542969 C 423.667969 424.441406 423.414062 424.363281 423.148438 424.3125 C 422.882812 424.261719 422.617188 424.238281 422.347656 424.238281 L 395.589844 424.238281 C 395.226562 424.242188 394.878906 424.171875 394.542969 424.035156 C 394.207031 423.898438 393.910156 423.703125 393.652344 423.449219 C 393.394531 423.195312 393.195312 422.898438 393.058594 422.566406 C 392.917969 422.234375 392.847656 421.886719 392.84375 421.523438 L 392.84375 414.058594 C 392.847656 413.695312 392.917969 413.347656 393.058594 413.015625 C 393.195312 412.679688 393.394531 412.386719 393.652344 412.132812 C 393.910156 411.878906 394.207031 411.679688 394.542969 411.542969 C 394.878906 411.40625 395.226562 411.339844 395.589844 411.339844 L 447.667969 411.339844 C 447.9375 411.34375 448.203125 411.316406 448.46875 411.265625 C 448.730469 411.214844 448.988281 411.140625 449.238281 411.039062 C 449.484375 410.933594 449.722656 410.8125 449.945312 410.664062 C 450.171875 410.515625 450.378906 410.34375 450.570312 410.15625 C 450.761719 409.96875 450.933594 409.761719 451.082031 409.539062 C 451.234375 409.316406 451.359375 409.082031 451.464844 408.835938 C 451.570312 408.585938 451.648438 408.332031 451.699219 408.066406 C 451.753906 407.804688 451.78125 407.539062 451.785156 407.269531 Z M 451.785156 407.269531 " fill-opacity="1" fill-rule="nonzero"/><g clip-path="url(#9263d49e80)"><path fill="#142664" d="M 613.246094 330.742188 L 622.066406 378.273438 C 622.066406 378.605469 622.003906 378.921875 621.878906 379.226562 C 621.75 379.53125 621.570312 379.800781 621.335938 380.035156 C 621.101562 380.269531 620.832031 380.449219 620.527344 380.574219 C 620.222656 380.703125 619.902344 380.765625 619.574219 380.765625 L 585.886719 380.765625 C 585.554688 380.765625 585.234375 380.703125 584.929688 380.574219 C 584.625 380.449219 584.355469 380.269531 584.121094 380.035156 C 583.886719 379.800781 583.707031 379.53125 583.578125 379.226562 C 583.453125 378.921875 583.390625 378.605469 583.390625 378.273438 L 583.390625 323.484375 C 583.390625 322.988281 583.296875 322.511719 583.105469 322.054688 C 582.914062 321.597656 582.644531 321.191406 582.292969 320.84375 C 581.941406 320.492188 581.539062 320.222656 581.078125 320.03125 C 580.621094 319.84375 580.144531 319.75 579.648438 319.75 L 563.425781 319.75 C 561.359375 319.75 554.488281 327.074219 552.058594 330.792969 L 560.929688 380.765625 L 560.929688 396.953125 C 560.929688 397.363281 560.972656 397.765625 561.050781 398.167969 C 561.132812 398.570312 561.25 398.957031 561.40625 399.335938 C 561.5625 399.714844 561.753906 400.070312 561.984375 400.410156 C 562.210938 400.75 562.46875 401.066406 562.757812 401.355469 C 563.046875 401.644531 563.363281 401.902344 563.703125 402.128906 C 564.042969 402.355469 564.402344 402.546875 564.78125 402.703125 C 565.160156 402.863281 565.550781 402.980469 565.953125 403.058594 C 566.355469 403.140625 566.761719 403.179688 567.167969 403.179688 L 622.066406 403.179688 L 632.972656 411.050781 C 636.605469 408.382812 644.53125 401.636719 644.53125 398.199219 L 644.53125 323.484375 C 644.53125 322.988281 644.433594 322.511719 644.246094 322.054688 C 644.054688 321.597656 643.785156 321.191406 643.433594 320.839844 C 643.082031 320.492188 642.675781 320.222656 642.214844 320.03125 C 641.757812 319.84375 641.28125 319.75 640.78125 319.75 L 624.5625 319.75 C 621.8125 319.75 615.992188 327.152344 613.246094 330.742188 Z M 613.246094 330.742188 " fill-opacity="1" fill-rule="nonzero"/></g><path fill="#cb6ce6" d="M 612.085938 333.445312 L 612.085938 388.238281 C 612.085938 388.566406 612.023438 388.882812 611.898438 389.1875 C 611.769531 389.496094 611.589844 389.765625 611.355469 389.996094 C 611.121094 390.230469 610.851562 390.410156 610.546875 390.539062 C 610.242188 390.664062 609.921875 390.726562 609.589844 390.726562 L 575.902344 390.726562 C 575.574219 390.726562 575.253906 390.664062 574.949219 390.539062 C 574.644531 390.410156 574.375 390.230469 574.140625 389.996094 C 573.90625 389.765625 573.726562 389.496094 573.597656 389.1875 C 573.472656 388.882812 573.410156 388.566406 573.410156 388.238281 L 573.410156 333.445312 C 573.410156 332.949219 573.3125 332.472656 573.125 332.015625 C 572.933594 331.558594 572.664062 331.15625 572.3125 330.804688 C 571.960938 330.453125 571.554688 330.183594 571.097656 329.996094 C 570.640625 329.804688 570.164062 329.710938 569.664062 329.710938 L 554.695312 329.710938 C 554.199219 329.710938 553.71875 329.804688 553.261719 329.996094 C 552.804688 330.183594 552.398438 330.453125 552.046875 330.804688 C 551.695312 331.15625 551.425781 331.558594 551.234375 332.015625 C 551.046875 332.472656 550.949219 332.949219 550.949219 333.445312 L 550.949219 406.914062 C 550.949219 407.324219 550.992188 407.726562 551.070312 408.128906 C 551.152344 408.53125 551.269531 408.917969 551.425781 409.296875 C 551.582031 409.675781 551.773438 410.035156 552.003906 410.375 C 552.230469 410.714844 552.488281 411.027344 552.777344 411.316406 C 553.066406 411.605469 553.382812 411.863281 553.722656 412.089844 C 554.0625 412.320312 554.421875 412.511719 554.800781 412.667969 C 555.179688 412.824219 555.570312 412.941406 555.972656 413.019531 C 556.375 413.101562 556.78125 413.140625 557.1875 413.140625 L 628.304688 413.140625 C 628.714844 413.140625 629.121094 413.101562 629.523438 413.019531 C 629.925781 412.941406 630.316406 412.824219 630.695312 412.667969 C 631.070312 412.511719 631.433594 412.320312 631.773438 412.089844 C 632.113281 411.863281 632.429688 411.605469 632.71875 411.316406 C 633.007812 411.027344 633.265625 410.714844 633.492188 410.375 C 633.722656 410.035156 633.914062 409.675781 634.070312 409.296875 C 634.226562 408.917969 634.34375 408.53125 634.425781 408.128906 C 634.503906 407.726562 634.542969 407.324219 634.542969 406.914062 L 634.542969 333.445312 C 634.542969 332.949219 634.449219 332.472656 634.261719 332.015625 C 634.070312 331.558594 633.800781 331.15625 633.449219 330.804688 C 633.097656 330.453125 632.691406 330.183594 632.234375 329.996094 C 631.777344 329.804688 631.296875 329.710938 630.800781 329.710938 L 615.828125 329.710938 C 615.332031 329.710938 614.855469 329.804688 614.398438 329.996094 C 613.9375 330.183594 613.535156 330.453125 613.183594 330.804688 C 612.832031 331.15625 612.5625 331.558594 612.371094 332.015625 C 612.183594 332.472656 612.085938 332.949219 612.085938 333.445312 Z M 612.085938 333.445312 " fill-opacity="1" fill-rule="nonzero"/><path fill="#cb6ce6" d="M 634.988281 330.875 C 634.988281 330.875 635.96875 330.039062 637.285156 328.886719 C 637.949219 328.253906 638.746094 327.554688 639.492188 326.8125 C 639.925781 326.386719 640.335938 325.9375 640.722656 325.464844 C 642.265625 323.71875 643.503906 322.253906 643.503906 322.253906 C 643.808594 321.972656 643.675781 321.429688 643.324219 321.058594 C 643.183594 320.871094 642.996094 320.757812 642.765625 320.71875 C 642.535156 320.675781 642.320312 320.722656 642.125 320.847656 C 642.125 320.847656 640.648438 322.101562 638.945312 323.644531 C 638.476562 324.042969 638.035156 324.464844 637.617188 324.910156 C 636.871094 325.652344 636.171875 326.433594 635.554688 327.109375 C 634.382812 328.386719 633.558594 329.425781 633.558594 329.425781 C 633.253906 329.707031 633.386719 330.25 633.738281 330.621094 C 634.183594 331.078125 634.761719 331.164062 634.988281 330.875 Z M 634.988281 330.875 " fill-opacity="1" fill-rule="nonzero"/><path fill="#cb6ce6" d="M 575.734375 390.019531 C 575.734375 390.019531 576.71875 389.183594 578.035156 388.03125 C 578.695312 387.398438 579.492188 386.699219 580.238281 385.960938 C 580.671875 385.53125 581.082031 385.078125 581.46875 384.609375 C 583.011719 382.863281 584.253906 381.402344 584.253906 381.402344 C 584.554688 381.121094 584.421875 380.578125 584.074219 380.207031 C 583.933594 380.019531 583.746094 379.90625 583.515625 379.867188 C 583.28125 379.824219 583.066406 379.871094 582.871094 379.996094 C 582.871094 379.996094 581.390625 381.253906 579.691406 382.792969 C 579.226562 383.191406 578.785156 383.613281 578.367188 384.058594 C 577.621094 384.800781 576.921875 385.582031 576.304688 386.257812 C 575.132812 387.535156 574.308594 388.578125 574.308594 388.578125 C 574.003906 388.855469 574.136719 389.398438 574.488281 389.769531 C 574.929688 390.222656 575.507812 390.304688 575.734375 390.019531 Z M 575.734375 390.019531 " fill-opacity="1" fill-rule="nonzero"/><path fill="#cb6ce6" d="M 573.730469 330.875 C 573.730469 330.875 574.710938 330.039062 576.027344 328.886719 C 576.691406 328.253906 577.488281 327.554688 578.234375 326.8125 C 578.667969 326.386719 579.078125 325.9375 579.464844 325.464844 C 581.007812 323.71875 582.246094 322.253906 582.246094 322.253906 C 582.550781 321.972656 582.417969 321.429688 582.070312 321.058594 C 581.925781 320.871094 581.742188 320.757812 581.507812 320.71875 C 581.277344 320.675781 581.0625 320.722656 580.867188 320.847656 C 580.867188 320.847656 579.390625 322.101562 577.6875 323.644531 C 577.21875 324.042969 576.777344 324.464844 576.359375 324.910156 C 575.613281 325.652344 574.914062 326.433594 574.296875 327.109375 C 573.125 328.386719 572.300781 329.425781 572.300781 329.425781 C 572 329.707031 572.128906 330.25 572.480469 330.621094 C 572.925781 331.078125 573.503906 331.164062 573.730469 330.875 Z M 573.730469 330.875 " fill-opacity="1" fill-rule="nonzero"/><g clip-path="url(#c7c3a16d1f)"><path fill="#142664" d="M 727.253906 319.75 L 671.109375 319.75 C 667.664062 319.75 661.257812 327.207031 658.667969 330.929688 L 666.117188 342.164062 L 666.117188 399.441406 C 666.117188 399.9375 666.210938 400.414062 666.402344 400.871094 C 666.589844 401.332031 666.863281 401.734375 667.214844 402.085938 C 667.5625 402.433594 667.96875 402.703125 668.425781 402.894531 C 668.886719 403.085938 669.363281 403.179688 669.859375 403.179688 L 677.304688 412.222656 C 679.894531 410.742188 688.574219 402.75 688.574219 400.6875 L 688.574219 384.847656 C 688.574219 384.519531 688.636719 384.203125 688.765625 383.898438 C 688.890625 383.589844 689.070312 383.320312 689.304688 383.089844 C 689.539062 382.855469 689.808594 382.675781 690.117188 382.550781 C 690.421875 382.421875 690.738281 382.359375 691.070312 382.359375 L 738.296875 390.0625 C 741.53125 387.886719 749.710938 380.816406 749.710938 377.378906 L 749.710938 325.976562 C 749.710938 325.566406 749.671875 325.160156 749.589844 324.761719 C 749.511719 324.359375 749.394531 323.96875 749.234375 323.59375 C 749.078125 323.214844 748.886719 322.855469 748.660156 322.515625 C 748.433594 322.175781 748.175781 321.863281 747.882812 321.574219 C 747.59375 321.285156 747.28125 321.027344 746.941406 320.796875 C 746.597656 320.570312 746.238281 320.378906 745.863281 320.222656 C 745.484375 320.066406 745.09375 319.949219 744.691406 319.867188 C 744.289062 319.789062 743.882812 319.75 743.476562 319.75 Z M 724.761719 359.945312 L 691.074219 359.945312 C 690.742188 359.945312 690.421875 359.882812 690.117188 359.753906 C 689.8125 359.628906 689.542969 359.449219 689.308594 359.214844 C 689.074219 358.980469 688.894531 358.710938 688.769531 358.40625 C 688.640625 358.101562 688.578125 357.785156 688.578125 357.453125 L 688.578125 344.652344 C 688.578125 344.324219 688.640625 344.003906 688.769531 343.699219 C 688.894531 343.394531 689.074219 343.125 689.308594 342.890625 C 689.542969 342.660156 689.8125 342.480469 690.117188 342.351562 C 690.421875 342.226562 690.742188 342.164062 691.074219 342.164062 L 724.761719 342.164062 C 725.089844 342.164062 725.410156 342.226562 725.714844 342.351562 C 726.019531 342.476562 726.289062 342.660156 726.523438 342.890625 C 726.757812 343.125 726.9375 343.394531 727.066406 343.699219 C 727.191406 344.003906 727.253906 344.324219 727.253906 344.652344 L 727.253906 357.453125 C 727.253906 357.785156 727.191406 358.101562 727.066406 358.40625 C 726.9375 358.710938 726.757812 358.980469 726.523438 359.214844 C 726.289062 359.449219 726.019531 359.628906 725.714844 359.753906 C 725.410156 359.882812 725.089844 359.945312 724.761719 359.945312 Z M 724.761719 359.945312 " fill-opacity="1" fill-rule="nonzero"/></g><path fill="#cb6ce6" d="M 717.273438 329.710938 L 662.375 329.710938 C 661.96875 329.710938 661.5625 329.75 661.160156 329.828125 C 660.757812 329.910156 660.367188 330.027344 659.988281 330.183594 C 659.609375 330.339844 659.25 330.53125 658.910156 330.757812 C 658.570312 330.988281 658.253906 331.246094 657.964844 331.535156 C 657.675781 331.824219 657.417969 332.136719 657.191406 332.476562 C 656.960938 332.816406 656.769531 333.175781 656.613281 333.554688 C 656.457031 333.929688 656.339844 334.320312 656.257812 334.722656 C 656.179688 335.121094 656.136719 335.527344 656.136719 335.9375 L 656.136719 409.40625 C 656.136719 409.898438 656.234375 410.375 656.421875 410.835938 C 656.613281 411.292969 656.882812 411.695312 657.234375 412.046875 C 657.585938 412.398438 657.992188 412.667969 658.449219 412.855469 C 658.90625 413.046875 659.386719 413.140625 659.882812 413.140625 L 674.851562 413.140625 C 675.347656 413.140625 675.828125 413.046875 676.285156 412.855469 C 676.742188 412.667969 677.148438 412.398438 677.5 412.046875 C 677.851562 411.695312 678.121094 411.292969 678.3125 410.835938 C 678.5 410.375 678.597656 409.898438 678.597656 409.40625 L 678.597656 394.8125 C 678.597656 394.480469 678.660156 394.164062 678.785156 393.859375 C 678.914062 393.554688 679.09375 393.285156 679.328125 393.050781 C 679.5625 392.816406 679.832031 392.636719 680.136719 392.511719 C 680.441406 392.386719 680.761719 392.320312 681.089844 392.320312 L 733.492188 392.320312 C 733.902344 392.320312 734.308594 392.28125 734.710938 392.203125 C 735.113281 392.121094 735.503906 392.003906 735.882812 391.847656 C 736.261719 391.691406 736.621094 391.5 736.960938 391.273438 C 737.300781 391.046875 737.617188 390.785156 737.90625 390.496094 C 738.195312 390.207031 738.453125 389.894531 738.679688 389.554688 C 738.910156 389.214844 739.101562 388.855469 739.257812 388.476562 C 739.414062 388.101562 739.53125 387.710938 739.613281 387.308594 C 739.691406 386.910156 739.730469 386.503906 739.730469 386.09375 L 739.730469 335.9375 C 739.730469 335.527344 739.691406 335.121094 739.613281 334.722656 C 739.53125 334.320312 739.414062 333.929688 739.257812 333.554688 C 739.101562 333.175781 738.910156 332.816406 738.679688 332.476562 C 738.453125 332.136719 738.195312 331.824219 737.90625 331.535156 C 737.617188 331.246094 737.300781 330.988281 736.960938 330.757812 C 736.617188 330.53125 736.257812 330.339844 735.882812 330.183594 C 735.503906 330.027344 735.113281 329.910156 734.710938 329.828125 C 734.308594 329.75 733.902344 329.710938 733.492188 329.710938 Z M 714.777344 369.90625 L 681.089844 369.90625 C 680.761719 369.90625 680.441406 369.84375 680.136719 369.71875 C 679.832031 369.589844 679.5625 369.410156 679.328125 369.175781 C 679.09375 368.945312 678.914062 368.675781 678.785156 368.371094 C 678.660156 368.0625 678.597656 367.746094 678.597656 367.417969 L 678.597656 354.613281 C 678.597656 354.285156 678.660156 353.964844 678.785156 353.660156 C 678.914062 353.355469 679.09375 353.085938 679.328125 352.855469 C 679.5625 352.621094 679.832031 352.441406 680.136719 352.3125 C 680.441406 352.1875 680.761719 352.125 681.089844 352.125 L 714.777344 352.125 C 715.109375 352.125 715.429688 352.1875 715.734375 352.3125 C 716.039062 352.441406 716.308594 352.621094 716.542969 352.855469 C 716.777344 353.085938 716.957031 353.355469 717.085938 353.660156 C 717.210938 353.964844 717.273438 354.285156 717.273438 354.613281 L 717.273438 367.417969 C 717.273438 367.746094 717.210938 368.0625 717.085938 368.371094 C 716.957031 368.675781 716.777344 368.945312 716.542969 369.175781 C 716.308594 369.410156 716.039062 369.589844 715.734375 369.71875 C 715.429688 369.84375 715.109375 369.90625 714.777344 369.90625 Z M 714.777344 369.90625 " fill-opacity="1" fill-rule="nonzero"/><path fill="#cb6ce6" d="M 680.90625 368.933594 C 680.90625 368.933594 681.890625 368.097656 683.207031 366.945312 C 683.871094 366.3125 684.664062 365.613281 685.414062 364.871094 C 685.847656 364.441406 686.257812 363.992188 686.644531 363.523438 C 688.1875 361.777344 689.425781 360.316406 689.425781 360.316406 C 689.730469 360.035156 689.597656 359.492188 689.246094 359.121094 C 689.105469 358.933594 688.917969 358.820312 688.6875 358.777344 C 688.457031 358.738281 688.242188 358.78125 688.042969 358.910156 C 688.042969 358.910156 686.570312 360.164062 684.863281 361.707031 C 684.398438 362.101562 683.957031 362.523438 683.539062 362.972656 C 682.792969 363.710938 682.089844 364.496094 681.476562 365.171875 C 680.304688 366.449219 679.480469 367.488281 679.480469 367.488281 C 679.175781 367.769531 679.308594 368.3125 679.65625 368.683594 C 680.105469 369.136719 680.683594 369.21875 680.90625 368.933594 Z M 680.90625 368.933594 " fill-opacity="1" fill-rule="nonzero"/><path fill="#cb6ce6" d="M 739.710938 331.722656 C 739.710938 331.722656 740.695312 330.886719 742.011719 329.734375 C 742.675781 329.101562 743.46875 328.40625 744.21875 327.664062 C 744.652344 327.234375 745.0625 326.785156 745.449219 326.3125 C 746.992188 324.570312 748.230469 323.101562 748.230469 323.101562 C 748.53125 322.824219 748.402344 322.277344 748.050781 321.90625 C 747.910156 321.722656 747.722656 321.605469 747.492188 321.566406 C 747.261719 321.527344 747.046875 321.570312 746.847656 321.699219 C 746.847656 321.699219 745.371094 322.953125 743.667969 324.492188 C 743.203125 324.890625 742.761719 325.3125 742.34375 325.757812 C 741.597656 326.5 740.894531 327.28125 740.28125 327.957031 C 739.109375 329.234375 738.285156 330.277344 738.285156 330.277344 C 737.980469 330.558594 738.113281 331.101562 738.464844 331.472656 C 738.90625 331.929688 739.484375 332.011719 739.710938 331.722656 Z M 739.710938 331.722656 " fill-opacity="1" fill-rule="nonzero"/><path fill="#cb6ce6" d="M 352.742188 380.25 L 334.765625 380.25 C 332.085938 380.25 325.21875 388.011719 321.777344 392.574219 L 325.480469 433.335938 C 325.402344 433.960938 325.136719 434.492188 324.691406 434.9375 L 313.316406 446.25 C 313.054688 446.507812 312.753906 446.707031 312.414062 446.847656 C 312.074219 446.988281 311.71875 447.058594 311.351562 447.058594 C 310.984375 447.058594 310.632812 446.988281 310.289062 446.847656 C 309.949219 446.707031 309.652344 446.507812 309.390625 446.25 L 298.015625 434.941406 C 297.570312 434.5 297.308594 433.964844 297.226562 433.34375 L 290.570312 383.859375 C 290.503906 383.359375 290.351562 382.886719 290.113281 382.445312 C 289.875 382 289.566406 381.609375 289.1875 381.277344 C 288.804688 380.945312 288.378906 380.691406 287.90625 380.515625 C 287.433594 380.335938 286.945312 380.25 286.441406 380.25 L 269.160156 380.25 C 266.402344 380.21875 258.171875 387.882812 254.976562 393.011719 L 273.597656 443.746094 C 273.800781 445.300781 274.457031 446.632812 275.570312 447.738281 L 297.664062 469.714844 C 298.480469 470.527344 299.460938 470.929688 300.613281 470.929688 L 321.269531 470.929688 C 322.433594 470.929688 323.421875 470.515625 324.242188 469.691406 L 347.183594 447.730469 C 348.273438 446.628906 348.917969 445.3125 349.117188 443.777344 L 356.875 384.917969 C 356.914062 384.625 356.917969 384.332031 356.894531 384.039062 C 356.867188 383.746094 356.8125 383.457031 356.726562 383.175781 C 356.636719 382.894531 356.523438 382.625 356.378906 382.367188 C 356.234375 382.109375 356.0625 381.871094 355.867188 381.648438 C 355.671875 381.429688 355.453125 381.230469 355.214844 381.054688 C 354.980469 380.882812 354.726562 380.734375 354.457031 380.613281 C 354.1875 380.492188 353.90625 380.402344 353.617188 380.339844 C 353.328125 380.28125 353.035156 380.25 352.742188 380.25 Z M 352.742188 380.25 " fill-opacity="1" fill-rule="nonzero"/><path fill="#142664" d="M 346.25 392.574219 C 346.25 392.574219 347.34375 391.644531 348.804688 390.367188 C 349.542969 389.667969 350.425781 388.894531 351.257812 388.070312 C 351.742188 387.597656 352.199219 387.097656 352.628906 386.578125 C 354.34375 384.644531 355.722656 383.023438 355.722656 383.023438 C 356.058594 382.710938 355.914062 382.109375 355.523438 381.699219 C 355.363281 381.492188 355.15625 381.367188 354.898438 381.320312 C 354.640625 381.277344 354.402344 381.324219 354.183594 381.46875 C 354.183594 381.46875 352.542969 382.855469 350.644531 384.5625 C 350.128906 385.003906 349.636719 385.472656 349.171875 385.96875 C 348.339844 386.789062 347.5625 387.65625 346.875 388.402344 C 345.570312 389.820312 344.65625 390.972656 344.65625 390.972656 C 344.316406 391.28125 344.464844 391.882812 344.855469 392.292969 C 345.355469 392.800781 345.992188 392.890625 346.25 392.574219 Z M 346.25 392.574219 " fill-opacity="1" fill-rule="nonzero"/><path fill="#142664" d="M 279.742188 392.574219 C 279.742188 392.574219 280.835938 391.644531 282.300781 390.367188 C 283.039062 389.667969 283.921875 388.894531 284.753906 388.070312 C 285.238281 387.597656 285.691406 387.097656 286.125 386.578125 C 287.839844 384.644531 289.21875 383.023438 289.21875 383.023438 C 289.554688 382.710938 289.40625 382.109375 289.019531 381.699219 C 288.859375 381.492188 288.652344 381.363281 288.394531 381.320312 C 288.136719 381.277344 287.898438 381.324219 287.675781 381.46875 C 287.675781 381.46875 286.035156 382.855469 284.140625 384.5625 C 283.621094 385.003906 283.128906 385.472656 282.664062 385.96875 C 281.835938 386.789062 281.058594 387.65625 280.371094 388.402344 C 279.066406 389.820312 278.148438 390.972656 278.148438 390.972656 C 277.8125 391.28125 277.960938 391.882812 278.347656 392.292969 C 278.847656 392.800781 279.488281 392.890625 279.742188 392.574219 Z M 279.742188 392.574219 " fill-opacity="1" fill-rule="nonzero"/><path fill="#142664" d="M 341.40625 391.257812 L 324.820312 391.257812 C 324.3125 391.257812 323.824219 391.34375 323.351562 391.523438 C 322.878906 391.699219 322.453125 391.953125 322.070312 392.285156 C 321.691406 392.617188 321.382812 393.007812 321.144531 393.453125 C 320.90625 393.898438 320.753906 394.371094 320.6875 394.871094 L 314.144531 444.34375 C 314.0625 444.96875 313.800781 445.5 313.355469 445.945312 L 301.976562 457.257812 C 301.71875 457.515625 301.417969 457.714844 301.078125 457.855469 C 300.738281 457.996094 300.382812 458.066406 300.015625 458.066406 C 299.648438 458.066406 299.292969 457.996094 298.953125 457.855469 C 298.613281 457.714844 298.3125 457.515625 298.054688 457.257812 L 286.679688 445.949219 C 286.234375 445.507812 285.972656 444.972656 285.890625 444.351562 L 279.234375 394.867188 C 279.167969 394.367188 279.015625 393.894531 278.777344 393.449219 C 278.539062 393.007812 278.230469 392.617188 277.847656 392.285156 C 277.46875 391.953125 277.042969 391.699219 276.570312 391.523438 C 276.097656 391.34375 275.609375 391.257812 275.101562 391.257812 L 258.121094 391.277344 C 255.609375 391.277344 254.066406 393.453125 254.386719 395.929688 L 262.261719 454.753906 C 262.464844 456.308594 263.121094 457.640625 264.234375 458.75 L 286.324219 480.722656 C 287.140625 481.535156 288.125 481.9375 289.277344 481.9375 L 311.160156 481.9375 C 312.324219 481.9375 313.3125 481.527344 314.128906 480.699219 L 335.84375 458.738281 C 336.933594 457.636719 337.578125 456.320312 337.777344 454.785156 L 345.535156 395.925781 C 345.570312 395.632812 345.574219 395.339844 345.550781 395.046875 C 345.523438 394.753906 345.46875 394.464844 345.382812 394.183594 C 345.296875 393.902344 345.179688 393.632812 345.035156 393.375 C 344.890625 393.121094 344.722656 392.878906 344.527344 392.660156 C 344.332031 392.4375 344.113281 392.242188 343.875 392.066406 C 343.640625 391.890625 343.386719 391.742188 343.117188 391.625 C 342.847656 391.503906 342.570312 391.410156 342.28125 391.347656 C 341.992188 391.289062 341.699219 391.257812 341.40625 391.257812 Z M 341.40625 391.257812 " fill-opacity="1" fill-rule="nonzero"/><g clip-path="url(#271a841be8)"><path fill="#142664" d="M 605.6875 460.09375 C 605.617188 459.355469 605.386719 458.671875 605 458.039062 C 604.421875 457.480469 603.734375 457.253906 602.9375 457.351562 L 594.691406 457.351562 C 594.148438 457.34375 593.65625 457.183594 593.21875 456.871094 C 592.777344 456.558594 592.464844 456.144531 592.285156 455.636719 C 592.082031 455.125 592.011719 454.597656 592.074219 454.050781 C 592.132812 453.503906 592.320312 453.003906 592.628906 452.546875 C 597.785156 445.6875 607.75 432.308594 612.21875 426.136719 C 612.53125 425.808594 612.898438 425.554688 613.316406 425.375 C 613.734375 425.195312 614.167969 425.105469 614.625 425.105469 C 615.078125 425.105469 615.515625 425.195312 615.933594 425.375 C 616.351562 425.554688 616.714844 425.808594 617.03125 426.136719 C 621.5 431.96875 631.464844 445.34375 636.621094 452.546875 C 636.929688 453.003906 637.113281 453.503906 637.175781 454.050781 C 637.234375 454.597656 637.164062 455.125 636.964844 455.636719 C 636.78125 456.144531 636.472656 456.554688 636.03125 456.871094 C 635.589844 457.183594 635.101562 457.34375 634.558594 457.351562 L 626.308594 457.351562 C 625.570312 457.421875 624.882812 457.652344 624.25 458.039062 C 623.691406 458.613281 623.460938 459.300781 623.5625 460.09375 L 623.5625 487.0625 C 623.488281 487.800781 623.257812 488.488281 622.875 489.121094 C 622.296875 489.675781 621.609375 489.90625 620.8125 489.808594 L 608.613281 489.808594 C 607.871094 489.734375 607.183594 489.507812 606.550781 489.121094 C 605.992188 488.542969 605.765625 487.859375 605.863281 487.0625 C 604.832031 476.773438 605.6875 470.726562 605.6875 460.09375 Z M 605.6875 460.09375 " fill-opacity="1" fill-rule="nonzero"/></g><g clip-path="url(#fdd9a77e03)"><path fill="#142664" d="M 678.128906 460.09375 C 678.054688 459.355469 677.828125 458.671875 677.441406 458.039062 C 676.863281 457.480469 676.175781 457.253906 675.378906 457.351562 L 667.128906 457.351562 C 666.589844 457.34375 666.097656 457.183594 665.65625 456.871094 C 665.214844 456.554688 664.90625 456.144531 664.722656 455.636719 C 664.523438 455.125 664.453125 454.597656 664.515625 454.050781 C 664.574219 453.503906 664.757812 453.003906 665.066406 452.546875 C 670.222656 445.6875 680.191406 432.308594 684.660156 426.136719 C 684.972656 425.808594 685.335938 425.554688 685.753906 425.375 C 686.171875 425.195312 686.609375 425.105469 687.0625 425.105469 C 687.519531 425.105469 687.957031 425.195312 688.375 425.375 C 688.792969 425.554688 689.15625 425.808594 689.46875 426.136719 C 693.9375 431.96875 703.90625 445.34375 709.058594 452.546875 C 709.367188 453.003906 709.554688 453.503906 709.613281 454.050781 C 709.675781 454.597656 709.605469 455.125 709.402344 455.636719 C 709.222656 456.144531 708.910156 456.558594 708.472656 456.871094 C 708.03125 457.183594 707.539062 457.34375 707 457.351562 L 698.75 457.351562 C 698.011719 457.421875 697.324219 457.652344 696.6875 458.039062 C 696.128906 458.613281 695.902344 459.300781 696 460.09375 L 696 487.0625 C 695.929688 487.800781 695.699219 488.488281 695.3125 489.121094 C 694.734375 489.675781 694.046875 489.90625 693.25 489.808594 L 681.050781 489.808594 C 680.3125 489.734375 679.625 489.507812 678.988281 489.121094 C 678.433594 488.542969 678.203125 487.859375 678.300781 487.0625 C 677.269531 476.773438 678.128906 470.726562 678.128906 460.09375 Z M 678.128906 460.09375 " fill-opacity="1" fill-rule="nonzero"/></g></svg>