<?xml version="1.0" standalone="no"?>
<!DOCTYPE svg PUBLIC "-//W3C//DTD SVG 20010904//EN"
 "http://www.w3.org/TR/2001/REC-SVG-20010904/DTD/svg10.dtd">
<svg version="1.0" xmlns="http://www.w3.org/2000/svg"
 width="512.000000pt" height="512.000000pt" viewBox="0 0 512.000000 512.000000"
 preserveAspectRatio="xMidYMid meet">
<metadata>
Created by potrace 1.14, written by Peter Selinger 2001-2017
</metadata>
<g transform="translate(0.000000,512.000000) scale(0.100000,-0.100000)"
fill="#000000" stroke="none">
<path d="M2498 4655 c-5 -5 -154 -57 -533 -186 -807 -273 -1029 -350 -1054
-365 -39 -23 -62 -66 -64 -117 -2 -60 24 -108 73 -136 39 -22 50 -23 250 -23
l209 0 3 -137 c3 -131 4 -139 30 -172 51 -67 -8 -64 1158 -63 1171 1 1092 -4
1142 66 21 30 23 45 26 170 l4 138 206 -1 c115 -1 218 3 232 9 103 40 126 200
37 260 -30 20 -235 92 -1047 367 -135 45 -319 108 -409 139 -149 51 -244 69
-263 51z"/>
<path d="M1309 3293 c-11 -13 -14 -73 -14 -298 1 -278 1 -281 25 -319 39 -64
80 -76 264 -75 155 1 157 1 173 25 13 21 14 29 3 49 -7 14 -20 25 -29 26 -9 1
-80 2 -158 2 -118 2 -145 5 -159 19 -15 14 -17 49 -18 286 -1 288 -4 302 -51
302 -12 0 -29 -7 -36 -17z"/>
<path d="M3419 3293 c-11 -13 -14 -73 -14 -297 1 -322 3 -332 83 -372 38 -20
58 -22 198 -22 140 0 158 2 175 19 23 23 24 42 3 63 -17 18 -13 17 -184 21
-162 2 -155 1 -166 28 -5 12 -9 137 -8 277 1 204 -1 259 -12 278 -17 26 -56
29 -75 5z"/>
<path d="M1876 3244 c-14 -13 -16 -56 -16 -314 l0 -300 23 -14 c17 -12 53 -15
142 -15 129 0 155 9 155 54 0 38 -23 47 -125 48 l-95 0 0 74 0 73 85 0 c102 0
135 12 135 50 0 44 -21 52 -125 53 l-95 1 0 102 0 102 101 1 c55 1 109 6 120
11 26 14 26 66 0 80 -11 5 -80 10 -155 10 -109 0 -138 -3 -150 -16z"/>
<path d="M2328 3243 c-24 -27 -30 -5 135 -463 25 -69 48 -132 51 -141 9 -21
59 -49 88 -49 12 0 37 9 55 19 28 18 36 34 68 138 20 65 51 163 68 218 17 55
32 102 32 105 1 3 7 23 14 45 27 86 29 103 14 124 -19 28 -59 27 -77 -1 -8
-13 -49 -139 -92 -280 -43 -142 -81 -254 -84 -250 -4 4 -26 61 -49 127 -109
304 -144 401 -154 413 -14 18 -51 15 -69 -5z"/>
<path d="M2976 3247 c-17 -13 -19 -34 -18 -293 0 -345 -1 -320 17 -337 22 -22
263 -21 288 1 20 18 22 42 3 67 -11 16 -27 18 -110 18 l-96 0 0 74 0 73 88 0
c104 0 138 15 127 59 -3 14 -10 30 -15 35 -5 5 -51 10 -102 10 l-93 1 -3 103
-3 102 105 0 c111 0 136 9 136 50 0 43 -23 50 -169 50 -99 0 -142 -4 -155 -13z"/>
<path d="M1501 2419 c-20 -12 -33 -31 -39 -56 -15 -58 -9 -648 7 -703 63 -222
266 -379 491 -381 187 -1 351 92 445 253 65 110 68 128 70 489 3 356 0 376
-52 402 -33 17 -118 16 -150 -1 -46 -25 -48 -40 -49 -362 -1 -189 -5 -320 -12
-345 -17 -60 -64 -118 -124 -151 -45 -24 -64 -29 -123 -28 -82 0 -131 21 -188
80 -64 67 -69 97 -69 432 1 317 -3 348 -50 373 -37 20 -122 19 -157 -2z"/>
<path d="M2795 2430 c-11 -4 -29 -18 -40 -30 -19 -21 -20 -38 -23 -490 -2
-289 1 -477 7 -493 16 -41 56 -61 123 -61 52 0 62 3 90 31 30 30 31 35 33 121
1 58 6 96 14 106 11 13 39 16 166 16 124 0 165 4 217 20 194 60 314 258 276
459 -19 104 -96 215 -183 266 -93 55 -111 58 -395 60 -146 1 -274 -1 -285 -5z
m515 -255 c59 -18 103 -84 99 -148 -3 -53 -22 -87 -66 -117 -31 -21 -47 -24
-151 -26 -198 -3 -217 18 -203 222 1 27 46 72 74 76 42 6 222 1 247 -7z"/>
<path d="M946 2064 c-12 -11 -16 -35 -16 -85 l0 -69 -47 -1 c-106 -2 -122 -8
-123 -50 0 -39 24 -52 98 -52 l72 0 0 -72 c0 -46 5 -76 13 -82 27 -21 48 -22
67 -3 16 16 20 34 20 89 l0 68 72 0 c58 0 74 3 85 18 37 51 1 85 -90 85 l-67
0 0 69 c0 51 -4 72 -16 82 -24 19 -51 21 -68 3z"/>
<path d="M4107 2062 c-12 -13 -17 -36 -17 -84 l0 -66 -76 -4 c-76 -3 -93 -13
-94 -49 0 -38 24 -51 98 -52 l72 -1 0 -66 c0 -88 32 -127 79 -94 18 13 21 25
21 88 l0 73 70 0 c76 0 100 12 100 49 0 41 -25 54 -101 54 l-69 0 0 68 c0 76
-5 88 -41 97 -18 4 -30 1 -42 -13z"/>
<path d="M1514 1082 c-45 -9 -86 -37 -109 -77 -24 -41 -25 -48 -25 -236 0
-182 1 -198 23 -239 44 -86 -47 -80 1155 -80 1174 -1 1102 -5 1153 63 23 31
24 38 27 240 3 207 3 208 -22 251 -48 82 36 76 -1139 79 -574 1 -1052 0 -1063
-1z"/>
</g>
</svg>
